{
	"patcher" : 	{
		"fileversion" : 1,
		"appversion" : 		{
			"major" : 7,
			"minor" : 3,
			"revision" : 1,
			"architecture" : "x86",
			"modernui" : 1
		}
,
		"rect" : [ 107.0, 191.0, 640.0, 480.0 ],
		"bglocked" : 0,
		"openinpresentation" : 0,
		"default_fontsize" : 12.0,
		"default_fontface" : 0,
		"default_fontname" : "Arial",
		"gridonopen" : 1,
		"gridsize" : [ 15.0, 15.0 ],
		"gridsnaponopen" : 1,
		"objectsnaponopen" : 1,
		"statusbarvisible" : 2,
		"toolbarvisible" : 1,
		"lefttoolbarpinned" : 0,
		"toptoolbarpinned" : 0,
		"righttoolbarpinned" : 0,
		"bottomtoolbarpinned" : 0,
		"toolbars_unpinned_last_save" : 0,
		"tallnewobj" : 0,
		"boxanimatetime" : 200,
		"enablehscroll" : 1,
		"enablevscroll" : 1,
		"devicewidth" : 0.0,
		"description" : "",
		"digest" : "",
		"tags" : "",
		"style" : "",
		"subpatcher_template" : "",
		"boxes" : [ 			{
				"box" : 				{
					"bgmode" : 0,
					"border" : 1,
					"clickthrough" : 0,
					"embed" : 1,
					"enablehscroll" : 0,
					"enablevscroll" : 0,
					"id" : "obj-2",
					"lockeddragscroll" : 0,
					"maxclass" : "bpatcher",
					"numinlets" : 2,
					"numoutlets" : 1,
					"offset" : [ 0.0, 0.0 ],
					"outlettype" : [ "" ],
					"patcher" : 					{
						"fileversion" : 1,
						"appversion" : 						{
							"major" : 7,
							"minor" : 3,
							"revision" : 1,
							"architecture" : "x86",
							"modernui" : 1
						}
,
						"rect" : [ 180.0, 283.0, 325.0, 115.0 ],
						"bglocked" : 0,
						"openinpresentation" : 1,
						"default_fontsize" : 12.0,
						"default_fontface" : 0,
						"default_fontname" : "Arial",
						"gridonopen" : 1,
						"gridsize" : [ 15.0, 15.0 ],
						"gridsnaponopen" : 1,
						"objectsnaponopen" : 1,
						"statusbarvisible" : 2,
						"toolbarvisible" : 1,
						"lefttoolbarpinned" : 0,
						"toptoolbarpinned" : 0,
						"righttoolbarpinned" : 0,
						"bottomtoolbarpinned" : 0,
						"toolbars_unpinned_last_save" : 0,
						"tallnewobj" : 0,
						"boxanimatetime" : 200,
						"enablehscroll" : 1,
						"enablevscroll" : 1,
						"devicewidth" : 0.0,
						"description" : "",
						"digest" : "",
						"tags" : "",
						"style" : "",
						"subpatcher_template" : "",
						"boxes" : [ 							{
								"box" : 								{
									"fontname" : "Arial Bold",
									"fontsize" : 9.0,
									"id" : "obj-34",
									"maxclass" : "comment",
									"numinlets" : 1,
									"numoutlets" : 0,
									"patching_rect" : [ 160.0, 151.0, 201.0, 17.0 ],
									"presentation" : 1,
									"presentation_rect" : [ 242.0, 0.0, 83.0, 17.0 ],
									"style" : "",
									"text" : "reset_view(bang)",
									"textcolor" : [ 1.0, 1.0, 1.0, 1.0 ],
									"textjustification" : 2
								}

							}
, 							{
								"box" : 								{
									"id" : "obj-33",
									"maxclass" : "newobj",
									"numinlets" : 1,
									"numoutlets" : 2,
									"outlettype" : [ "", "" ],
									"patching_rect" : [ 564.405396, 378.0, 29.5, 22.0 ],
									"style" : "",
									"text" : "t l l"
								}

							}
, 							{
								"box" : 								{
									"id" : "obj-32",
									"maxclass" : "newobj",
									"numinlets" : 1,
									"numoutlets" : 2,
									"outlettype" : [ "", "" ],
									"patching_rect" : [ 81.0, 177.0, 55.0, 22.0 ],
									"style" : "",
									"text" : "pattrhub"
								}

							}
, 							{
								"box" : 								{
									"id" : "obj-15",
									"maxclass" : "newobj",
									"numinlets" : 1,
									"numoutlets" : 1,
									"outlettype" : [ "" ],
									"patching_rect" : [ 412.0, 547.0, 107.0, 22.0 ],
									"style" : "",
									"text" : "prepend fog_color"
								}

							}
, 							{
								"box" : 								{
									"comment" : "",
									"id" : "obj-2",
									"maxclass" : "inlet",
									"numinlets" : 0,
									"numoutlets" : 1,
									"outlettype" : [ "" ],
									"patching_rect" : [ 1171.0, 280.907501, 30.0, 30.0 ],
									"style" : ""
								}

							}
, 							{
								"box" : 								{
									"id" : "obj-27",
									"maxclass" : "newobj",
									"numinlets" : 1,
									"numoutlets" : 3,
									"outlettype" : [ "", "", "" ],
									"patching_rect" : [ 854.0, 212.907501, 93.0, 22.0 ],
									"restore" : [ 0 ],
									"saved_object_attributes" : 									{
										"parameter_enable" : 0
									}
,
									"style" : "",
									"text" : "pattr navigation",
									"varname" : "navigation"
								}

							}
, 							{
								"box" : 								{
									"fontname" : "Arial",
									"fontsize" : 12.0,
									"id" : "obj-14",
									"maxclass" : "newobj",
									"numinlets" : 1,
									"numoutlets" : 2,
									"outlettype" : [ "jit_gl_texture", "" ],
									"patching_rect" : [ 871.0, 498.907501, 426.0, 22.0 ],
									"style" : "",
									"text" : "jit.gl.camera @fog_params 0.2 0.2 0.2 0.5 0.8 1.3 9. @erase_color 0.2 0.2 0.2"
								}

							}
, 							{
								"box" : 								{
									"id" : "obj-19",
									"maxclass" : "newobj",
									"numinlets" : 1,
									"numoutlets" : 1,
									"outlettype" : [ "bang" ],
									"patching_rect" : [ 969.25, 528.907471, 60.0, 22.0 ],
									"style" : "",
									"text" : "loadbang"
								}

							}
, 							{
								"box" : 								{
									"id" : "obj-16",
									"maxclass" : "message",
									"numinlets" : 2,
									"numoutlets" : 1,
									"outlettype" : [ "" ],
									"patching_rect" : [ 969.25, 607.907471, 67.0, 22.0 ],
									"style" : "",
									"text" : "ui_map $2"
								}

							}
, 							{
								"box" : 								{
									"data" : 									{
										"keymap" : 										{
											"a" : "move -1 0 0",
											"d" : "move 1 0 0",
											"z" : "move 0 -1 0",
											"q" : "move 0 1 0",
											"w" : "move 0 0 -1",
											"s" : "move 0 0 1"
										}
,
										"mousemap" : 										{
											"mouse_down_horizontal" : "turn 0 -1 0",
											"mouse_down_vertical" : "turn -0.5 0 0"
										}

									}
,
									"id" : "obj-4",
									"maxclass" : "newobj",
									"numinlets" : 2,
									"numoutlets" : 4,
									"outlettype" : [ "dictionary", "", "", "" ],
									"patching_rect" : [ 969.25, 564.907471, 98.0, 22.0 ],
									"saved_object_attributes" : 									{
										"embed" : 1,
										"parameter_enable" : 0
									}
,
									"style" : "",
									"text" : "dict @embed 1"
								}

							}
, 							{
								"box" : 								{
									"fontname" : "Arial",
									"fontsize" : 12.0,
									"id" : "obj-7",
									"maxclass" : "newobj",
									"numinlets" : 2,
									"numoutlets" : 1,
									"outlettype" : [ "" ],
									"patching_rect" : [ 998.0, 302.0, 34.0, 22.0 ],
									"style" : "",
									"text" : "gate"
								}

							}
, 							{
								"box" : 								{
									"fontname" : "Arial",
									"fontsize" : 12.0,
									"id" : "obj-5",
									"maxclass" : "newobj",
									"numinlets" : 2,
									"numoutlets" : 2,
									"outlettype" : [ "bang", "" ],
									"patching_rect" : [ 1120.0, 248.0, 48.0, 22.0 ],
									"style" : "",
									"text" : "sel 114"
								}

							}
, 							{
								"box" : 								{
									"fontname" : "Arial",
									"fontsize" : 12.0,
									"id" : "obj-9",
									"maxclass" : "newobj",
									"numinlets" : 0,
									"numoutlets" : 4,
									"outlettype" : [ "int", "int", "int", "int" ],
									"patching_rect" : [ 1191.5, 202.0, 59.5, 22.0 ],
									"style" : "",
									"text" : "key"
								}

							}
, 							{
								"box" : 								{
									"id" : "obj-10",
									"legacytextcolor" : 1,
									"maxclass" : "textbutton",
									"mode" : 1,
									"numinlets" : 1,
									"numoutlets" : 3,
									"outlettype" : [ "", "", "int" ],
									"parameter_enable" : 0,
									"patching_rect" : [ 859.0, 241.907501, 100.0, 20.0 ],
									"presentation" : 1,
									"presentation_rect" : [ 4.0, 66.0, 100.0, 20.0 ],
									"prototypename" : "grill_bordered",
									"style" : "velvet",
									"text" : "navigation:0",
									"texton" : "navigation:1",
									"textoncolor" : [ 1.0, 1.0, 1.0, 1.0 ],
									"textovercolor" : [ 0.65098, 0.666667, 0.662745, 1.0 ],
									"usebgoncolor" : 1,
									"usetextovercolor" : 1,
									"varname" : "textbutton[3]"
								}

							}
, 							{
								"box" : 								{
									"fontname" : "Arial",
									"fontsize" : 12.0,
									"id" : "obj-11",
									"maxclass" : "newobj",
									"numinlets" : 1,
									"numoutlets" : 2,
									"outlettype" : [ "", "" ],
									"patching_rect" : [ 838.0, 458.907501, 422.0, 22.0 ],
									"style" : "",
									"text" : "jit.anim.node @movemode local @turnmode local @tripod 1 @position 0 0 2."
								}

							}
, 							{
								"box" : 								{
									"fontname" : "Arial",
									"fontsize" : 12.0,
									"id" : "obj-86",
									"maxclass" : "message",
									"numinlets" : 2,
									"numoutlets" : 1,
									"outlettype" : [ "" ],
									"patching_rect" : [ 1065.0, 385.907501, 266.0, 22.0 ],
									"style" : "",
									"text" : "position 0. 0. 2., rotatexyz 0. 0. 0., lookat 0. 0. 0."
								}

							}
, 							{
								"box" : 								{
									"bgcolor" : [ 0.0, 0.0, 0.0, 1.0 ],
									"bgoncolor" : [ 1.0, 1.0, 1.0, 1.0 ],
									"id" : "obj-84",
									"legacytextcolor" : 1,
									"maxclass" : "textbutton",
									"numinlets" : 1,
									"numoutlets" : 3,
									"outlettype" : [ "", "", "int" ],
									"parameter_enable" : 0,
									"patching_rect" : [ 1065.0, 345.907501, 100.0, 20.0 ],
									"presentation" : 1,
									"presentation_rect" : [ 112.0, 66.0, 100.0, 20.0 ],
									"prototypename" : "grill_bordered",
									"rounded" : 8.0,
									"style" : "velvet",
									"text" : "reset_view",
									"textcolor" : [ 1.0, 1.0, 1.0, 1.0 ],
									"texton" : "loop",
									"textoncolor" : [ 0.65098, 0.666667, 0.662745, 1.0 ],
									"textovercolor" : [ 0.65098, 0.666667, 0.662745, 1.0 ],
									"usebgoncolor" : 1,
									"usetextovercolor" : 1
								}

							}
, 							{
								"box" : 								{
									"fontname" : "Arial",
									"fontsize" : 12.0,
									"id" : "obj-81",
									"maxclass" : "newobj",
									"numinlets" : 2,
									"numoutlets" : 1,
									"outlettype" : [ "int" ],
									"patching_rect" : [ 833.0, 324.907501, 32.5, 22.0 ],
									"style" : "",
									"text" : "> 0"
								}

							}
, 							{
								"box" : 								{
									"fontname" : "Arial",
									"fontsize" : 12.0,
									"id" : "obj-80",
									"maxclass" : "message",
									"numinlets" : 2,
									"numoutlets" : 1,
									"outlettype" : [ "" ],
									"patching_rect" : [ 833.0, 353.0, 71.0, 22.0 ],
									"style" : "",
									"text" : "ui_listen $1"
								}

							}
, 							{
								"box" : 								{
									"fontname" : "Arial",
									"fontsize" : 12.0,
									"id" : "obj-12",
									"maxclass" : "newobj",
									"numinlets" : 1,
									"numoutlets" : 2,
									"outlettype" : [ "", "" ],
									"patching_rect" : [ 839.0, 417.907501, 280.0, 22.0 ],
									"style" : "",
									"text" : "jit.anim.drive @ui_listen 0 @speed 5. @easein 0.9"
								}

							}
, 							{
								"box" : 								{
									"id" : "obj-6",
									"maxclass" : "message",
									"numinlets" : 2,
									"numoutlets" : 1,
									"outlettype" : [ "" ],
									"patching_rect" : [ 58.905396, 452.0, 120.0, 22.0 ],
									"style" : "",
									"text" : "enable $1, visible $1"
								}

							}
, 							{
								"box" : 								{
									"bgcolor" : [ 0.0, 0.0, 0.0, 1.0 ],
									"id" : "obj-53",
									"maxclass" : "textbutton",
									"mode" : 1,
									"numinlets" : 1,
									"numoutlets" : 3,
									"outlettype" : [ "", "", "int" ],
									"parameter_enable" : 0,
									"patching_rect" : [ 168.5, 296.0, 100.0, 20.0 ],
									"presentation" : 1,
									"presentation_rect" : [ 4.0, 40.0, 100.0, 20.0 ],
									"style" : "",
									"text" : "enable:0",
									"texton" : "enable:1",
									"textoncolor" : [ 1.0, 1.0, 1.0, 1.0 ],
									"varname" : "textbutton[2]"
								}

							}
, 							{
								"box" : 								{
									"id" : "obj-49",
									"maxclass" : "newobj",
									"numinlets" : 1,
									"numoutlets" : 1,
									"outlettype" : [ "" ],
									"patching_rect" : [ 583.0, 444.0, 109.0, 22.0 ],
									"style" : "",
									"text" : "prepend bgfillcolor"
								}

							}
, 							{
								"box" : 								{
									"angle" : 270.0,
									"bgcolor" : [ 0.698039, 0.423529, 0.423529, 1.0 ],
									"border" : 1,
									"bordercolor" : [ 0.0, 0.0, 0.0, 1.0 ],
									"id" : "obj-46",
									"maxclass" : "panel",
									"mode" : 0,
									"numinlets" : 1,
									"numoutlets" : 0,
									"patching_rect" : [ 564.405396, 482.0, 48.0, 25.0 ],
									"presentation" : 1,
									"presentation_rect" : [ 305.5, 40.0, 13.0, 20.0 ],
									"proportion" : 0.39,
									"rounded" : 0,
									"style" : ""
								}

							}
, 							{
								"box" : 								{
									"id" : "obj-44",
									"maxclass" : "newobj",
									"numinlets" : 1,
									"numoutlets" : 3,
									"outlettype" : [ "", "", "" ],
									"patching_rect" : [ 418.0, 367.0, 101.0, 22.0 ],
									"restore" : [ 0.698039, 0.423529, 0.423529, 1.0 ],
									"saved_object_attributes" : 									{
										"parameter_enable" : 0
									}
,
									"style" : "",
									"text" : "pattr erase_color",
									"varname" : "erase_color"
								}

							}
, 							{
								"box" : 								{
									"bgcolor" : [ 0.0, 0.0, 0.0, 1.0 ],
									"blinktime" : 500,
									"id" : "obj-45",
									"maxclass" : "textbutton",
									"numinlets" : 1,
									"numoutlets" : 3,
									"outlettype" : [ "", "", "int" ],
									"outputmode" : 0,
									"parameter_enable" : 0,
									"patching_rect" : [ 463.0, 240.0, 100.0, 20.0 ],
									"presentation" : 1,
									"presentation_rect" : [ 220.0, 40.0, 90.0, 20.0 ],
									"style" : "",
									"text" : "erase_color",
									"texton" : "On",
									"textoncolor" : [ 1.0, 1.0, 1.0, 1.0 ],
									"varname" : "textbutton[1]"
								}

							}
, 							{
								"box" : 								{
									"id" : "obj-41",
									"maxclass" : "newobj",
									"numinlets" : 1,
									"numoutlets" : 2,
									"outlettype" : [ "list", "bang" ],
									"patching_rect" : [ 474.905396, 312.0, 299.0, 22.0 ],
									"style" : "",
									"text" : "colorpicker @compatibility 0 @currentcolor 0.3 0.3 0.3"
								}

							}
, 							{
								"box" : 								{
									"id" : "obj-38",
									"maxclass" : "newobj",
									"numinlets" : 1,
									"numoutlets" : 1,
									"outlettype" : [ "" ],
									"patching_rect" : [ 380.5, 482.0, 121.0, 22.0 ],
									"style" : "",
									"text" : "prepend erase_color"
								}

							}
, 							{
								"box" : 								{
									"id" : "obj-30",
									"maxclass" : "newobj",
									"numinlets" : 1,
									"numoutlets" : 3,
									"outlettype" : [ "", "", "" ],
									"patching_rect" : [ 192.0, 367.0, 77.0, 22.0 ],
									"restore" : [ 0 ],
									"saved_object_attributes" : 									{
										"parameter_enable" : 0
									}
,
									"style" : "",
									"text" : "pattr floating",
									"varname" : "floating"
								}

							}
, 							{
								"box" : 								{
									"id" : "obj-29",
									"maxclass" : "message",
									"numinlets" : 2,
									"numoutlets" : 1,
									"outlettype" : [ "" ],
									"patching_rect" : [ 219.0, 452.0, 66.0, 22.0 ],
									"style" : "",
									"text" : "floating $1"
								}

							}
, 							{
								"box" : 								{
									"bgcolor" : [ 0.0, 0.0, 0.0, 1.0 ],
									"id" : "obj-26",
									"maxclass" : "textbutton",
									"mode" : 1,
									"numinlets" : 1,
									"numoutlets" : 3,
									"outlettype" : [ "", "", "int" ],
									"parameter_enable" : 0,
									"patching_rect" : [ 198.0, 408.0, 100.0, 20.0 ],
									"presentation" : 1,
									"presentation_rect" : [ 112.0, 40.0, 100.0, 20.0 ],
									"style" : "",
									"text" : "floating:0",
									"texton" : "floating:1",
									"textoncolor" : [ 1.0, 1.0, 1.0, 1.0 ],
									"varname" : "textbutton"
								}

							}
, 							{
								"box" : 								{
									"comment" : "",
									"id" : "obj-25",
									"maxclass" : "inlet",
									"numinlets" : 0,
									"numoutlets" : 1,
									"outlettype" : [ "" ],
									"patching_rect" : [ 81.0, 121.0, 30.0, 30.0 ],
									"style" : ""
								}

							}
, 							{
								"box" : 								{
									"id" : "obj-20",
									"maxclass" : "newobj",
									"numinlets" : 1,
									"numoutlets" : 3,
									"outlettype" : [ "", "", "" ],
									"patching_rect" : [ 81.0, 252.0, 195.0, 22.0 ],
									"saved_object_attributes" : 									{
										"initial" : [ 1 ],
										"parameter_enable" : 0
									}
,
									"style" : "",
									"text" : "pattr enable @invisible 1 @initial 1",
									"varname" : "enable"
								}

							}
, 							{
								"box" : 								{
									"comment" : "",
									"id" : "obj-1",
									"maxclass" : "outlet",
									"numinlets" : 1,
									"numoutlets" : 0,
									"patching_rect" : [ 89.5, 618.0, 30.0, 30.0 ],
									"style" : ""
								}

							}
, 							{
								"box" : 								{
									"fontname" : "Arial Bold",
									"fontsize" : 9.0,
									"id" : "obj-17",
									"linecount" : 3,
									"maxclass" : "comment",
									"numinlets" : 1,
									"numoutlets" : 0,
									"patching_rect" : [ 98.905396, 685.5, 40.0, 38.0 ],
									"presentation" : 1,
									"presentation_rect" : [ 2.0, 97.0, 68.0, 17.0 ],
									"style" : "",
									"text" : "to jit.world",
									"textcolor" : [ 1.0, 1.0, 1.0, 1.0 ]
								}

							}
, 							{
								"box" : 								{
									"fontname" : "Arial Bold",
									"fontsize" : 9.0,
									"id" : "obj-21",
									"maxclass" : "comment",
									"numinlets" : 1,
									"numoutlets" : 0,
									"patching_rect" : [ 121.0, 121.0, 201.0, 17.0 ],
									"presentation" : 1,
									"presentation_rect" : [ 0.0, 0.0, 59.0, 17.0 ],
									"style" : "",
									"text" : "attributes",
									"textcolor" : [ 1.0, 1.0, 1.0, 1.0 ]
								}

							}
, 							{
								"box" : 								{
									"fontname" : "Arial Bold",
									"fontsize" : 12.0,
									"id" : "obj-22",
									"maxclass" : "comment",
									"numinlets" : 1,
									"numoutlets" : 0,
									"patching_rect" : [ 27.0, 39.711639, 175.0, 20.0 ],
									"presentation" : 1,
									"presentation_rect" : [ 0.0, 18.0, 157.0, 20.0 ],
									"style" : "",
									"text" : "tof.jit.world+camera(v0.1)"
								}

							}
, 							{
								"box" : 								{
									"angle" : 0.0,
									"background" : 1,
									"bgcolor" : [ 0.0, 0.0, 0.0, 1.0 ],
									"id" : "obj-28",
									"maxclass" : "panel",
									"mode" : 0,
									"numinlets" : 1,
									"numoutlets" : 0,
									"patching_rect" : [ 236.905396, 50.711639, 37.0, 5.0 ],
									"presentation" : 1,
									"presentation_rect" : [ 0.0, 97.0, 325.0, 17.0 ],
									"proportion" : 0.39,
									"rounded" : 0,
									"style" : ""
								}

							}
, 							{
								"box" : 								{
									"angle" : 0.0,
									"background" : 1,
									"bgcolor" : [ 0.0, 0.0, 0.0, 1.0 ],
									"id" : "obj-135",
									"maxclass" : "panel",
									"mode" : 0,
									"numinlets" : 1,
									"numoutlets" : 0,
									"patching_rect" : [ 221.905396, 35.711639, 37.0, 5.0 ],
									"presentation" : 1,
									"presentation_rect" : [ 0.0, 0.0, 325.0, 17.0 ],
									"proportion" : 0.39,
									"rounded" : 0,
									"style" : ""
								}

							}
, 							{
								"box" : 								{
									"angle" : 0.0,
									"background" : 1,
									"bgcolor" : [ 1.0, 1.0, 1.0, 1.0 ],
									"id" : "obj-31",
									"maxclass" : "panel",
									"mode" : 0,
									"numinlets" : 1,
									"numoutlets" : 0,
									"patching_rect" : [ 394.905365, 45.711639, 159.0, 58.0 ],
									"presentation" : 1,
									"presentation_rect" : [ 0.0, 18.0, 325.0, 81.0 ],
									"proportion" : 0.39,
									"rounded" : 0,
									"style" : ""
								}

							}
 ],
						"lines" : [ 							{
								"patchline" : 								{
									"destination" : [ "obj-7", 0 ],
									"disabled" : 0,
									"hidden" : 0,
									"source" : [ "obj-10", 0 ]
								}

							}
, 							{
								"patchline" : 								{
									"destination" : [ "obj-81", 0 ],
									"disabled" : 0,
									"hidden" : 0,
									"source" : [ "obj-10", 0 ]
								}

							}
, 							{
								"patchline" : 								{
									"destination" : [ "obj-14", 0 ],
									"disabled" : 0,
									"hidden" : 0,
									"source" : [ "obj-11", 0 ]
								}

							}
, 							{
								"patchline" : 								{
									"destination" : [ "obj-11", 0 ],
									"disabled" : 0,
									"hidden" : 0,
									"source" : [ "obj-12", 0 ]
								}

							}
, 							{
								"patchline" : 								{
									"destination" : [ "obj-14", 0 ],
									"disabled" : 0,
									"hidden" : 0,
									"source" : [ "obj-15", 0 ]
								}

							}
, 							{
								"patchline" : 								{
									"destination" : [ "obj-12", 0 ],
									"disabled" : 0,
									"hidden" : 0,
									"source" : [ "obj-16", 0 ]
								}

							}
, 							{
								"patchline" : 								{
									"destination" : [ "obj-4", 0 ],
									"disabled" : 0,
									"hidden" : 0,
									"source" : [ "obj-19", 0 ]
								}

							}
, 							{
								"patchline" : 								{
									"destination" : [ "obj-84", 0 ],
									"disabled" : 0,
									"hidden" : 0,
									"source" : [ "obj-2", 0 ]
								}

							}
, 							{
								"patchline" : 								{
									"destination" : [ "obj-53", 0 ],
									"disabled" : 0,
									"hidden" : 0,
									"source" : [ "obj-20", 1 ]
								}

							}
, 							{
								"patchline" : 								{
									"destination" : [ "obj-6", 0 ],
									"disabled" : 0,
									"hidden" : 0,
									"source" : [ "obj-20", 0 ]
								}

							}
, 							{
								"patchline" : 								{
									"destination" : [ "obj-32", 0 ],
									"disabled" : 0,
									"hidden" : 0,
									"source" : [ "obj-25", 0 ]
								}

							}
, 							{
								"patchline" : 								{
									"destination" : [ "obj-29", 0 ],
									"disabled" : 0,
									"hidden" : 0,
									"source" : [ "obj-26", 0 ]
								}

							}
, 							{
								"patchline" : 								{
									"destination" : [ "obj-10", 0 ],
									"disabled" : 0,
									"hidden" : 0,
									"source" : [ "obj-27", 1 ]
								}

							}
, 							{
								"patchline" : 								{
									"destination" : [ "obj-1", 0 ],
									"disabled" : 0,
									"hidden" : 0,
									"source" : [ "obj-29", 0 ]
								}

							}
, 							{
								"patchline" : 								{
									"destination" : [ "obj-26", 0 ],
									"disabled" : 0,
									"hidden" : 0,
									"source" : [ "obj-30", 1 ]
								}

							}
, 							{
								"patchline" : 								{
									"destination" : [ "obj-15", 0 ],
									"disabled" : 0,
									"hidden" : 0,
									"source" : [ "obj-33", 0 ]
								}

							}
, 							{
								"patchline" : 								{
									"destination" : [ "obj-38", 0 ],
									"disabled" : 0,
									"hidden" : 0,
									"source" : [ "obj-33", 0 ]
								}

							}
, 							{
								"patchline" : 								{
									"destination" : [ "obj-41", 0 ],
									"disabled" : 0,
									"hidden" : 0,
									"source" : [ "obj-33", 1 ]
								}

							}
, 							{
								"patchline" : 								{
									"destination" : [ "obj-49", 0 ],
									"disabled" : 0,
									"hidden" : 0,
									"source" : [ "obj-33", 0 ]
								}

							}
, 							{
								"patchline" : 								{
									"destination" : [ "obj-14", 0 ],
									"disabled" : 0,
									"hidden" : 0,
									"source" : [ "obj-38", 0 ]
								}

							}
, 							{
								"patchline" : 								{
									"destination" : [ "obj-16", 0 ],
									"disabled" : 0,
									"hidden" : 0,
									"source" : [ "obj-4", 0 ]
								}

							}
, 							{
								"patchline" : 								{
									"destination" : [ "obj-44", 0 ],
									"disabled" : 0,
									"hidden" : 0,
									"source" : [ "obj-41", 0 ]
								}

							}
, 							{
								"patchline" : 								{
									"destination" : [ "obj-33", 0 ],
									"disabled" : 0,
									"hidden" : 0,
									"source" : [ "obj-44", 0 ]
								}

							}
, 							{
								"patchline" : 								{
									"destination" : [ "obj-41", 0 ],
									"disabled" : 0,
									"hidden" : 0,
									"source" : [ "obj-45", 0 ]
								}

							}
, 							{
								"patchline" : 								{
									"destination" : [ "obj-46", 0 ],
									"disabled" : 0,
									"hidden" : 0,
									"source" : [ "obj-49", 0 ]
								}

							}
, 							{
								"patchline" : 								{
									"destination" : [ "obj-7", 1 ],
									"disabled" : 0,
									"hidden" : 0,
									"source" : [ "obj-5", 0 ]
								}

							}
, 							{
								"patchline" : 								{
									"destination" : [ "obj-1", 0 ],
									"disabled" : 0,
									"hidden" : 0,
									"source" : [ "obj-6", 0 ]
								}

							}
, 							{
								"patchline" : 								{
									"destination" : [ "obj-84", 0 ],
									"disabled" : 0,
									"hidden" : 0,
									"source" : [ "obj-7", 0 ]
								}

							}
, 							{
								"patchline" : 								{
									"destination" : [ "obj-12", 0 ],
									"disabled" : 0,
									"hidden" : 0,
									"source" : [ "obj-80", 0 ]
								}

							}
, 							{
								"patchline" : 								{
									"destination" : [ "obj-80", 0 ],
									"disabled" : 0,
									"hidden" : 0,
									"source" : [ "obj-81", 0 ]
								}

							}
, 							{
								"patchline" : 								{
									"destination" : [ "obj-86", 0 ],
									"disabled" : 0,
									"hidden" : 0,
									"source" : [ "obj-84", 0 ]
								}

							}
, 							{
								"patchline" : 								{
									"destination" : [ "obj-11", 0 ],
									"disabled" : 0,
									"hidden" : 0,
									"source" : [ "obj-86", 0 ]
								}

							}
, 							{
								"patchline" : 								{
									"destination" : [ "obj-5", 0 ],
									"disabled" : 0,
									"hidden" : 0,
									"source" : [ "obj-9", 3 ]
								}

							}
 ]
					}
,
					"patching_rect" : [ 73.0, 92.0, 325.0, 115.0 ],
					"varname" : "bpatcher",
					"viewvisibility" : 1
				}

			}
, 			{
				"box" : 				{
					"id" : "obj-1",
					"maxclass" : "newobj",
					"numinlets" : 1,
					"numoutlets" : 3,
					"outlettype" : [ "", "bang", "" ],
					"patching_rect" : [ 73.0, 226.0, 51.0, 22.0 ],
					"style" : "",
					"text" : "jit.world"
				}

			}
 ],
		"lines" : [ 			{
				"patchline" : 				{
					"destination" : [ "obj-1", 0 ],
					"disabled" : 0,
					"hidden" : 0,
					"source" : [ "obj-2", 0 ]
				}

			}
 ],
		"dependency_cache" : [  ],
		"autosave" : 0
	}

}
